<?xml version="1.0" standalone="no"?>
<svg xmlns="http://www.w3.org/2000/svg" width="500" height="500"><defs><clipPath id="clip-path-dot-color"><path d="M 28 136v 12h 6a 6 6, 0, 0, 0, 0 -12" transform="rotate(180,34,142)"/><path d="M 28 256v 12h 12v -6a 6 6, 0, 0, 0, -6 -6" transform="rotate(-90,34,262)"/><rect x="28" y="268" width="12" height="12" transform="rotate(0,34,274)"/><rect x="28" y="280" width="12" height="12" transform="rotate(0,34,286)"/><path d="M 28 292v 12h 12v -6a 6 6, 0, 0, 0, -6 -6" transform="rotate(180,34,298)"/><path d="M 28 316v 12h 12v -6a 6 6, 0, 0, 0, -6 -6" transform="rotate(-90,34,322)"/><path d="M 28 328v 12h 6a 6 6, 0, 0, 0, 0 -12" transform="rotate(90,34,334)"/><path d="M 28 364v 12h 6a 6 6, 0, 0, 0, 0 -12" transform="rotate(180,34,370)"/><path d="M 40 124v 12h 12v -6a 6 6, 0, 0, 0, -6 -6" transform="rotate(-90,46,130)"/><rect x="40" y="136" width="12" height="12" transform="rotate(0,46,142)"/><rect x="40" y="148" width="12" height="12" transform="rotate(0,46,154)"/><path d="M 40 160v 12h 6a 6 6, 0, 0, 0, 0 -12" transform="rotate(90,46,166)"/><circle cx="46" cy="202" r="6" transform="rotate(0,46,202)"/><path d="M 40 220v 12h 6a 6 6, 0, 0, 0, 0 -12" transform="rotate(180,46,226)"/><path d="M 40 244v 12h 12v -6a 6 6, 0, 0, 0, -6 -6" transform="rotate(-90,46,250)"/><rect x="40" y="256" width="12" height="12" transform="rotate(0,46,262)"/><path d="M 40 268v 12h 12v -6a 6 6, 0, 0, 0, -6 -6" transform="rotate(90,46,274)"/><path d="M 40 292v 12h 12v -6a 6 6, 0, 0, 0, -6 -6" transform="rotate(0,46,298)"/><rect x="40" y="304" width="12" height="12" transform="rotate(0,46,310)"/><path d="M 40 316v 12h 12v -6a 6 6, 0, 0, 0, -6 -6" transform="rotate(90,46,322)"/><rect x="40" y="364" width="12" height="12" transform="rotate(0,46,370)"/><path d="M 52 124v 12h 12v -6a 6 6, 0, 0, 0, -6 -6" transform="rotate(0,58,130)"/><path d="M 52 136v 12h 12v -6a 6 6, 0, 0, 0, -6 -6" transform="rotate(90,58,142)"/><circle cx="58" cy="178" r="6" transform="rotate(0,58,178)"/><path d="M 52 220v 12h 6a 6 6, 0, 0, 0, 0 -12" transform="rotate(0,58,226)"/><rect x="52" y="244" width="12" height="12" transform="rotate(0,58,250)"/><rect x="52" y="256" width="12" height="12" transform="rotate(0,58,262)"/><path d="M 52 328v 12h 12v -6a 6 6, 0, 0, 0, -6 -6" transform="rotate(-90,58,334)"/><path d="M 52 340v 12h 6a 6 6, 0, 0, 0, 0 -12" transform="rotate(90,58,346)"/><path d="M 52 364v 12h 6a 6 6, 0, 0, 0, 0 -12" transform="rotate(0,58,370)"/><circle cx="70" cy="154" r="6" transform="rotate(0,70,154)"/><path d="M 64 184v 12h 6a 6 6, 0, 0, 0, 0 -12" transform="rotate(-90,70,190)"/><rect x="64" y="196" width="12" height="12" transform="rotate(0,70,202)"/><path d="M 64 208v 12h 12v -6a 6 6, 0, 0, 0, -6 -6" transform="rotate(180,70,214)"/><path d="M 64 232v 12h 6a 6 6, 0, 0, 0, 0 -12" transform="rotate(-90,70,238)"/><rect x="64" y="244" width="12" height="12" transform="rotate(0,70,250)"/><path d="M 64 256v 12h 12v -6a 6 6, 0, 0, 0, -6 -6" transform="rotate(90,70,262)"/><circle cx="70" cy="298" r="6" transform="rotate(0,70,298)"/><path d="M 64 328v 12h 6a 6 6, 0, 0, 0, 0 -12" transform="rotate(0,70,334)"/><circle cx="82" cy="166" r="6" transform="rotate(0,82,166)"/><rect x="76" y="196" width="12" height="12" transform="rotate(0,82,202)"/><path d="M 76 208v 12h 12v -6a 6 6, 0, 0, 0, -6 -6" transform="rotate(90,82,214)"/><rect x="76" y="244" width="12" height="12" transform="rotate(0,82,250)"/><circle cx="82" cy="322" r="6" transform="rotate(0,82,322)"/><path d="M 76 340v 12h 6a 6 6, 0, 0, 0, 0 -12" transform="rotate(-90,82,346)"/><path d="M 76 352v 12h 6a 6 6, 0, 0, 0, 0 -12" transform="rotate(90,82,358)"/><circle cx="94" cy="142" r="6" transform="rotate(0,94,142)"/><rect x="88" y="196" width="12" height="12" transform="rotate(0,94,202)"/><path d="M 88 232v 12h 6a 6 6, 0, 0, 0, 0 -12" transform="rotate(-90,94,238)"/><rect x="88" y="244" width="12" height="12" transform="rotate(0,94,250)"/><path d="M 88 268v 12h 12v -6a 6 6, 0, 0, 0, -6 -6" transform="rotate(-90,94,274)"/><path d="M 88 280v 12h 6a 6 6, 0, 0, 0, 0 -12" transform="rotate(90,94,286)"/><circle cx="94" cy="334" r="6" transform="rotate(0,94,334)"/><circle cx="106" cy="130" r="6" transform="rotate(0,106,130)"/><circle cx="106" cy="154" r="6" transform="rotate(0,106,154)"/><circle cx="106" cy="178" r="6" transform="rotate(0,106,178)"/><rect x="100" y="196" width="12" height="12" transform="rotate(0,106,202)"/><circle cx="106" cy="226" r="6" transform="rotate(0,106,226)"/><path d="M 100 244v 12h 6a 6 6, 0, 0, 0, 0 -12" transform="rotate(0,106,250)"/><rect x="100" y="268" width="12" height="12" transform="rotate(0,106,274)"/><path d="M 100 292v 12h 6a 6 6, 0, 0, 0, 0 -12" transform="rotate(180,106,298)"/><circle cx="106" cy="322" r="6" transform="rotate(0,106,322)"/><circle cx="106" cy="346" r="6" transform="rotate(0,106,346)"/><path d="M 100 364v 12h 6a 6 6, 0, 0, 0, 0 -12" transform="rotate(180,106,370)"/><path d="M 112 136v 12h 6a 6 6, 0, 0, 0, 0 -12" transform="rotate(180,118,142)"/><path d="M 112 160v 12h 6a 6 6, 0, 0, 0, 0 -12" transform="rotate(180,118,166)"/><path d="M 112 196v 12h 12v -6a 6 6, 0, 0, 0, -6 -6" transform="rotate(0,118,202)"/><path d="M 112 208v 12h 6a 6 6, 0, 0, 0, 0 -12" transform="rotate(90,118,214)"/><path d="M 112 256v 12h 12v -6a 6 6, 0, 0, 0, -6 -6" transform="rotate(-90,118,262)"/><rect x="112" y="268" width="12" height="12" transform="rotate(0,118,274)"/><path d="M 112 292v 12h 6a 6 6, 0, 0, 0, 0 -12" transform="rotate(0,118,298)"/><path d="M 112 352v 12h 12v -6a 6 6, 0, 0, 0, -6 -6" transform="rotate(-90,118,358)"/><rect x="112" y="364" width="12" height="12" transform="rotate(0,118,370)"/><path d="M 124 40v 12h 12v -6a 6 6, 0, 0, 0, -6 -6" transform="rotate(-90,130,46)"/><rect x="124" y="52" width="12" height="12" transform="rotate(0,130,58)"/><path d="M 124 64v 12h 6a 6 6, 0, 0, 0, 0 -12" transform="rotate(90,130,70)"/><path d="M 124 88v 12h 6a 6 6, 0, 0, 0, 0 -12" transform="rotate(-90,130,94)"/><path d="M 124 100v 12h 6a 6 6, 0, 0, 0, 0 -12" transform="rotate(90,130,106)"/><path d="M 124 136v 12h 6a 6 6, 0, 0, 0, 0 -12" transform="rotate(0,130,142)"/><rect x="124" y="160" width="12" height="12" transform="rotate(0,130,166)"/><path d="M 124 172v 12h 6a 6 6, 0, 0, 0, 0 -12" transform="rotate(90,130,178)"/><rect x="124" y="256" width="12" height="12" transform="rotate(0,130,262)"/><rect x="124" y="268" width="12" height="12" transform="rotate(0,130,274)"/><path d="M 124 280v 12h 12v -6a 6 6, 0, 0, 0, -6 -6" transform="rotate(180,130,286)"/><path d="M 124 316v 12h 6a 6 6, 0, 0, 0, 0 -12" transform="rotate(-90,130,322)"/><path d="M 124 328v 12h 12v -6a 6 6, 0, 0, 0, -6 -6" transform="rotate(180,130,334)"/><rect x="124" y="352" width="12" height="12" transform="rotate(0,130,358)"/><rect x="124" y="364" width="12" height="12" transform="rotate(0,130,370)"/><path d="M 124 436v 12h 12v -6a 6 6, 0, 0, 0, -6 -6" transform="rotate(-90,130,442)"/><path d="M 124 448v 12h 6a 6 6, 0, 0, 0, 0 -12" transform="rotate(90,130,454)"/><rect x="136" y="40" width="12" height="12" transform="rotate(0,142,46)"/><path d="M 136 124v 12h 6a 6 6, 0, 0, 0, 0 -12" transform="rotate(180,142,130)"/><path d="M 136 148v 12h 12v -6a 6 6, 0, 0, 0, -6 -6" transform="rotate(-90,142,154)"/><path d="M 136 160v 12h 12v -6a 6 6, 0, 0, 0, -6 -6" transform="rotate(90,142,166)"/><path d="M 136 184v 12h 6a 6 6, 0, 0, 0, 0 -12" transform="rotate(-90,142,190)"/><rect x="136" y="196" width="12" height="12" transform="rotate(0,142,202)"/><rect x="136" y="208" width="12" height="12" transform="rotate(0,142,214)"/><rect x="136" y="220" width="12" height="12" transform="rotate(0,142,226)"/><path d="M 136 232v 12h 12v -6a 6 6, 0, 0, 0, -6 -6" transform="rotate(180,142,238)"/><path d="M 136 256v 12h 12v -6a 6 6, 0, 0, 0, -6 -6" transform="rotate(0,142,262)"/><rect x="136" y="268" width="12" height="12" transform="rotate(0,142,274)"/><path d="M 136 280v 12h 12v -6a 6 6, 0, 0, 0, -6 -6" transform="rotate(90,142,286)"/><path d="M 136 304v 12h 6a 6 6, 0, 0, 0, 0 -12" transform="rotate(180,142,310)"/><rect x="136" y="328" width="12" height="12" transform="rotate(0,142,334)"/><rect x="136" y="340" width="12" height="12" transform="rotate(0,142,346)"/><rect x="136" y="352" width="12" height="12" transform="rotate(0,142,358)"/><path d="M 136 364v 12h 12v -6a 6 6, 0, 0, 0, -6 -6" transform="rotate(90,142,370)"/><path d="M 136 400v 12h 6a 6 6, 0, 0, 0, 0 -12" transform="rotate(180,142,406)"/><path d="M 136 436v 12h 6a 6 6, 0, 0, 0, 0 -12" transform="rotate(0,142,442)"/><path d="M 148 28v 12h 6a 6 6, 0, 0, 0, 0 -12" transform="rotate(-90,154,34)"/><rect x="148" y="40" width="12" height="12" transform="rotate(0,154,46)"/><rect x="148" y="52" width="12" height="12" transform="rotate(0,154,58)"/><path d="M 148 64v 12h 6a 6 6, 0, 0, 0, 0 -12" transform="rotate(90,154,70)"/><path d="M 148 88v 12h 12v -6a 6 6, 0, 0, 0, -6 -6" transform="rotate(-90,154,94)"/><rect x="148" y="100" width="12" height="12" transform="rotate(0,154,106)"/><rect x="148" y="112" width="12" height="12" transform="rotate(0,154,118)"/><rect x="148" y="124" width="12" height="12" transform="rotate(0,154,130)"/><rect x="148" y="136" width="12" height="12" transform="rotate(0,154,142)"/><path d="M 148 148v 12h 12v -6a 6 6, 0, 0, 0, -6 -6" transform="rotate(90,154,154)"/><circle cx="154" cy="178" r="6" transform="rotate(0,154,178)"/><rect x="148" y="196" width="12" height="12" transform="rotate(0,154,202)"/><rect x="148" y="208" width="12" height="12" transform="rotate(0,154,214)"/><path d="M 148 232v 12h 6a 6 6, 0, 0, 0, 0 -12" transform="rotate(0,154,238)"/><rect x="148" y="268" width="12" height="12" transform="rotate(0,154,274)"/><path d="M 148 292v 12h 12v -6a 6 6, 0, 0, 0, -6 -6" transform="rotate(-90,154,298)"/><rect x="148" y="304" width="12" height="12" transform="rotate(0,154,310)"/><rect x="148" y="328" width="12" height="12" transform="rotate(0,154,334)"/><rect x="148" y="352" width="12" height="12" transform="rotate(0,154,358)"/><circle cx="154" cy="382" r="6" transform="rotate(0,154,382)"/><path d="M 148 400v 12h 6a 6 6, 0, 0, 0, 0 -12" transform="rotate(0,154,406)"/><path d="M 160 76v 12h 12v -6a 6 6, 0, 0, 0, -6 -6" transform="rotate(-90,166,82)"/><path d="M 160 88v 12h 12v -6a 6 6, 0, 0, 0, -6 -6" transform="rotate(90,166,94)"/><path d="M 160 196v 12h 12v -6a 6 6, 0, 0, 0, -6 -6" transform="rotate(0,166,202)"/><rect x="160" y="208" width="12" height="12" transform="rotate(0,166,214)"/><path d="M 160 220v 12h 6a 6 6, 0, 0, 0, 0 -12" transform="rotate(90,166,226)"/><path d="M 160 244v 12h 6a 6 6, 0, 0, 0, 0 -12" transform="rotate(180,166,250)"/><path d="M 160 268v 12h 6a 6 6, 0, 0, 0, 0 -12" transform="rotate(0,166,274)"/><rect x="160" y="292" width="12" height="12" transform="rotate(0,166,298)"/><rect x="160" y="304" width="12" height="12" transform="rotate(0,166,310)"/><rect x="160" y="316" width="12" height="12" transform="rotate(0,166,322)"/><rect x="160" y="328" width="12" height="12" transform="rotate(0,166,334)"/><rect x="160" y="340" width="12" height="12" transform="rotate(0,166,346)"/><path d="M 160 352v 12h 12v -6a 6 6, 0, 0, 0, -6 -6" transform="rotate(90,166,358)"/><path d="M 160 412v 12h 12v -6a 6 6, 0, 0, 0, -6 -6" transform="rotate(-90,166,418)"/><rect x="160" y="424" width="12" height="12" transform="rotate(0,166,430)"/><rect x="160" y="436" width="12" height="12" transform="rotate(0,166,442)"/><rect x="160" y="448" width="12" height="12" transform="rotate(0,166,454)"/><path d="M 160 460v 12h 12v -6a 6 6, 0, 0, 0, -6 -6" transform="rotate(180,166,466)"/><path d="M 172 64v 12h 6a 6 6, 0, 0, 0, 0 -12" transform="rotate(-90,178,70)"/><rect x="172" y="76" width="12" height="12" transform="rotate(0,178,82)"/><path d="M 172 100v 12h 6a 6 6, 0, 0, 0, 0 -12" transform="rotate(-90,178,106)"/><path d="M 172 112v 12h 12v -6a 6 6, 0, 0, 0, -6 -6" transform="rotate(180,178,118)"/><path d="M 172 148v 12h 6a 6 6, 0, 0, 0, 0 -12" transform="rotate(180,178,154)"/><circle cx="178" cy="190" r="6" transform="rotate(0,178,190)"/><path d="M 172 232v 12h 12v -6a 6 6, 0, 0, 0, -6 -6" transform="rotate(-90,178,238)"/><rect x="172" y="244" width="12" height="12" transform="rotate(0,178,250)"/><path d="M 172 256v 12h 12v -6a 6 6, 0, 0, 0, -6 -6" transform="rotate(180,178,262)"/><path d="M 172 292v 12h 12v -6a 6 6, 0, 0, 0, -6 -6" transform="rotate(0,178,298)"/><path d="M 172 304v 12h 12v -6a 6 6, 0, 0, 0, -6 -6" transform="rotate(90,178,310)"/><rect x="172" y="328" width="12" height="12" transform="rotate(0,178,334)"/><rect x="172" y="340" width="12" height="12" transform="rotate(0,178,346)"/><path d="M 172 376v 12h 6a 6 6, 0, 0, 0, 0 -12" transform="rotate(-90,178,382)"/><path d="M 172 388v 12h 12v -6a 6 6, 0, 0, 0, -6 -6" transform="rotate(180,178,394)"/><rect x="172" y="412" width="12" height="12" transform="rotate(0,178,418)"/><rect x="172" y="424" width="12" height="12" transform="rotate(0,178,430)"/><rect x="172" y="436" width="12" height="12" transform="rotate(0,178,442)"/><rect x="172" y="460" width="12" height="12" transform="rotate(0,178,466)"/><circle cx="190" cy="46" r="6" transform="rotate(0,190,46)"/><rect x="184" y="76" width="12" height="12" transform="rotate(0,190,82)"/><path d="M 184 112v 12h 12v -6a 6 6, 0, 0, 0, -6 -6" transform="rotate(0,190,118)"/><path d="M 184 124v 12h 12v -6a 6 6, 0, 0, 0, -6 -6" transform="rotate(180,190,130)"/><path d="M 184 148v 12h 12v -6a 6 6, 0, 0, 0, -6 -6" transform="rotate(0,190,154)"/><path d="M 184 160v 12h 6a 6 6, 0, 0, 0, 0 -12" transform="rotate(90,190,166)"/><path d="M 184 220v 12h 6a 6 6, 0, 0, 0, 0 -12" transform="rotate(-90,190,226)"/><rect x="184" y="232" width="12" height="12" transform="rotate(0,190,238)"/><path d="M 184 256v 12h 6a 6 6, 0, 0, 0, 0 -12" transform="rotate(0,190,262)"/><path d="M 184 280v 12h 6a 6 6, 0, 0, 0, 0 -12" transform="rotate(180,190,286)"/><path d="M 184 316v 12h 6a 6 6, 0, 0, 0, 0 -12" transform="rotate(-90,190,322)"/><rect x="184" y="328" width="12" height="12" transform="rotate(0,190,334)"/><rect x="184" y="340" width="12" height="12" transform="rotate(0,190,346)"/><rect x="184" y="352" width="12" height="12" transform="rotate(0,190,358)"/><path d="M 184 364v 12h 6a 6 6, 0, 0, 0, 0 -12" transform="rotate(90,190,370)"/><rect x="184" y="388" width="12" height="12" transform="rotate(0,190,394)"/><path d="M 184 412v 12h 6a 6 6, 0, 0, 0, 0 -12" transform="rotate(0,190,418)"/><rect x="184" y="436" width="12" height="12" transform="rotate(0,190,442)"/><rect x="184" y="448" width="12" height="12" transform="rotate(0,190,454)"/><path d="M 184 460v 12h 12v -6a 6 6, 0, 0, 0, -6 -6" transform="rotate(90,190,466)"/><circle cx="202" cy="58" r="6" transform="rotate(0,202,58)"/><path d="M 196 76v 12h 12v -6a 6 6, 0, 0, 0, -6 -6" transform="rotate(0,202,82)"/><rect x="196" y="88" width="12" height="12" transform="rotate(0,202,94)"/><path d="M 196 100v 12h 6a 6 6, 0, 0, 0, 0 -12" transform="rotate(90,202,106)"/><rect x="196" y="124" width="12" height="12" transform="rotate(0,202,130)"/><path d="M 196 136v 12h 6a 6 6, 0, 0, 0, 0 -12" transform="rotate(90,202,142)"/><path d="M 196 172v 12h 6a 6 6, 0, 0, 0, 0 -12" transform="rotate(180,202,178)"/><path d="M 196 196v 12h 6a 6 6, 0, 0, 0, 0 -12" transform="rotate(-90,202,202)"/><path d="M 196 208v 12h 12v -6a 6 6, 0, 0, 0, -6 -6" transform="rotate(180,202,214)"/><rect x="196" y="232" width="12" height="12" transform="rotate(0,202,238)"/><path d="M 196 280v 12h 6a 6 6, 0, 0, 0, 0 -12" transform="rotate(0,202,286)"/><rect x="196" y="340" width="12" height="12" transform="rotate(0,202,346)"/><path d="M 196 376v 12h 6a 6 6, 0, 0, 0, 0 -12" transform="rotate(-90,202,382)"/><path d="M 196 388v 12h 12v -6a 6 6, 0, 0, 0, -6 -6" transform="rotate(90,202,394)"/><path d="M 196 436v 12h 12v -6a 6 6, 0, 0, 0, -6 -6" transform="rotate(0,202,442)"/><rect x="196" y="448" width="12" height="12" transform="rotate(0,202,454)"/><circle cx="214" cy="34" r="6" transform="rotate(0,214,34)"/><path d="M 208 112v 12h 6a 6 6, 0, 0, 0, 0 -12" transform="rotate(-90,214,118)"/><rect x="208" y="124" width="12" height="12" transform="rotate(0,214,130)"/><path d="M 208 148v 12h 6a 6 6, 0, 0, 0, 0 -12" transform="rotate(-90,214,154)"/><rect x="208" y="160" width="12" height="12" transform="rotate(0,214,166)"/><rect x="208" y="172" width="12" height="12" transform="rotate(0,214,178)"/><path d="M 208 208v 12h 12v -6a 6 6, 0, 0, 0, -6 -6" transform="rotate(0,214,214)"/><rect x="208" y="220" width="12" height="12" transform="rotate(0,214,226)"/><rect x="208" y="232" width="12" height="12" transform="rotate(0,214,238)"/><path d="M 208 256v 12h 6a 6 6, 0, 0, 0, 0 -12" transform="rotate(180,214,262)"/><circle cx="214" cy="310" r="6" transform="rotate(0,214,310)"/><path d="M 208 340v 12h 6a 6 6, 0, 0, 0, 0 -12" transform="rotate(0,214,346)"/><path d="M 208 364v 12h 6a 6 6, 0, 0, 0, 0 -12" transform="rotate(180,214,370)"/><circle cx="214" cy="406" r="6" transform="rotate(0,214,406)"/><rect x="208" y="448" width="12" height="12" transform="rotate(0,214,454)"/><path d="M 208 460v 12h 6a 6 6, 0, 0, 0, 0 -12" transform="rotate(90,214,466)"/><path d="M 220 76v 12h 6a 6 6, 0, 0, 0, 0 -12" transform="rotate(-90,226,82)"/><rect x="220" y="88" width="12" height="12" transform="rotate(0,226,94)"/><path d="M 220 100v 12h 6a 6 6, 0, 0, 0, 0 -12" transform="rotate(90,226,106)"/><path d="M 220 124v 12h 6a 6 6, 0, 0, 0, 0 -12" transform="rotate(0,226,130)"/><rect x="220" y="160" width="12" height="12" transform="rotate(0,226,166)"/><rect x="220" y="172" width="12" height="12" transform="rotate(0,226,178)"/><path d="M 220 184v 12h 12v -6a 6 6, 0, 0, 0, -6 -6" transform="rotate(180,226,190)"/><path d="M 220 220v 12h 12v -6a 6 6, 0, 0, 0, -6 -6" transform="rotate(0,226,226)"/><rect x="220" y="232" width="12" height="12" transform="rotate(0,226,238)"/><rect x="220" y="244" width="12" height="12" transform="rotate(0,226,250)"/><path d="M 220 256v 12h 12v -6a 6 6, 0, 0, 0, -6 -6" transform="rotate(90,226,262)"/><path d="M 220 292v 12h 6a 6 6, 0, 0, 0, 0 -12" transform="rotate(180,226,298)"/><circle cx="226" cy="334" r="6" transform="rotate(0,226,334)"/><path d="M 220 352v 12h 12v -6a 6 6, 0, 0, 0, -6 -6" transform="rotate(-90,226,358)"/><path d="M 220 364v 12h 12v -6a 6 6, 0, 0, 0, -6 -6" transform="rotate(90,226,370)"/><path d="M 220 424v 12h 12v -6a 6 6, 0, 0, 0, -6 -6" transform="rotate(-90,226,430)"/><rect x="220" y="436" width="12" height="12" transform="rotate(0,226,442)"/><path d="M 220 448v 12h 12v -6a 6 6, 0, 0, 0, -6 -6" transform="rotate(90,226,454)"/><path d="M 232 28v 12h 6a 6 6, 0, 0, 0, 0 -12" transform="rotate(180,238,34)"/><path d="M 232 52v 12h 6a 6 6, 0, 0, 0, 0 -12" transform="rotate(180,238,58)"/><path d="M 232 112v 12h 6a 6 6, 0, 0, 0, 0 -12" transform="rotate(180,238,118)"/><circle cx="238" cy="142" r="6" transform="rotate(0,238,142)"/><rect x="232" y="160" width="12" height="12" transform="rotate(0,238,166)"/><rect x="232" y="184" width="12" height="12" transform="rotate(0,238,190)"/><rect x="232" y="196" width="12" height="12" transform="rotate(0,238,202)"/><path d="M 232 208v 12h 6a 6 6, 0, 0, 0, 0 -12" transform="rotate(90,238,214)"/><rect x="232" y="232" width="12" height="12" transform="rotate(0,238,238)"/><path d="M 232 268v 12h 6a 6 6, 0, 0, 0, 0 -12" transform="rotate(180,238,274)"/><rect x="232" y="292" width="12" height="12" transform="rotate(0,238,298)"/><path d="M 232 316v 12h 6a 6 6, 0, 0, 0, 0 -12" transform="rotate(180,238,322)"/><path d="M 232 340v 12h 12v -6a 6 6, 0, 0, 0, -6 -6" transform="rotate(-90,238,346)"/><rect x="232" y="352" width="12" height="12" transform="rotate(0,238,358)"/><circle cx="238" cy="394" r="6" transform="rotate(0,238,394)"/><rect x="232" y="424" width="12" height="12" transform="rotate(0,238,430)"/><rect x="232" y="436" width="12" height="12" transform="rotate(0,238,442)"/><path d="M 232 460v 12h 6a 6 6, 0, 0, 0, 0 -12" transform="rotate(180,238,466)"/><rect x="244" y="28" width="12" height="12" transform="rotate(0,250,34)"/><rect x="244" y="52" width="12" height="12" transform="rotate(0,250,58)"/><path d="M 244 100v 12h 6a 6 6, 0, 0, 0, 0 -12" transform="rotate(-90,250,106)"/><rect x="244" y="112" width="12" height="12" transform="rotate(0,250,118)"/><path d="M 244 124v 12h 12v -6a 6 6, 0, 0, 0, -6 -6" transform="rotate(180,250,130)"/><path d="M 244 148v 12h 6a 6 6, 0, 0, 0, 0 -12" transform="rotate(-90,250,154)"/><rect x="244" y="160" width="12" height="12" transform="rotate(0,250,166)"/><rect x="244" y="172" width="12" height="12" transform="rotate(0,250,178)"/><rect x="244" y="184" width="12" height="12" transform="rotate(0,250,190)"/><rect x="244" y="232" width="12" height="12" transform="rotate(0,250,238)"/><path d="M 244 256v 12h 6a 6 6, 0, 0, 0, 0 -12" transform="rotate(-90,250,262)"/><rect x="244" y="268" width="12" height="12" transform="rotate(0,250,274)"/><rect x="244" y="280" width="12" height="12" transform="rotate(0,250,286)"/><rect x="244" y="292" width="12" height="12" transform="rotate(0,250,298)"/><rect x="244" y="304" width="12" height="12" transform="rotate(0,250,310)"/><rect x="244" y="316" width="12" height="12" transform="rotate(0,250,322)"/><rect x="244" y="328" width="12" height="12" transform="rotate(0,250,334)"/><rect x="244" y="340" width="12" height="12" transform="rotate(0,250,346)"/><rect x="244" y="352" width="12" height="12" transform="rotate(0,250,358)"/><rect x="244" y="364" width="12" height="12" transform="rotate(0,250,370)"/><path d="M 244 376v 12h 12v -6a 6 6, 0, 0, 0, -6 -6" transform="rotate(180,250,382)"/><path d="M 244 400v 12h 6a 6 6, 0, 0, 0, 0 -12" transform="rotate(180,250,406)"/><rect x="244" y="424" width="12" height="12" transform="rotate(0,250,430)"/><rect x="244" y="436" width="12" height="12" transform="rotate(0,250,442)"/><rect x="244" y="448" width="12" height="12" transform="rotate(0,250,454)"/><rect x="244" y="460" width="12" height="12" transform="rotate(0,250,466)"/><path d="M 256 28v 12h 6a 6 6, 0, 0, 0, 0 -12" transform="rotate(0,262,34)"/><rect x="256" y="52" width="12" height="12" transform="rotate(0,262,58)"/><circle cx="262" cy="82" r="6" transform="rotate(0,262,82)"/><path d="M 256 124v 12h 12v -6a 6 6, 0, 0, 0, -6 -6" transform="rotate(0,262,130)"/><path d="M 256 136v 12h 12v -6a 6 6, 0, 0, 0, -6 -6" transform="rotate(180,262,142)"/><path d="M 256 172v 12h 12v -6a 6 6, 0, 0, 0, -6 -6" transform="rotate(0,262,178)"/><rect x="256" y="184" width="12" height="12" transform="rotate(0,262,190)"/><path d="M 256 196v 12h 6a 6 6, 0, 0, 0, 0 -12" transform="rotate(90,262,202)"/><path d="M 256 220v 12h 12v -6a 6 6, 0, 0, 0, -6 -6" transform="rotate(-90,262,226)"/><rect x="256" y="232" width="12" height="12" transform="rotate(0,262,238)"/><path d="M 256 244v 12h 6a 6 6, 0, 0, 0, 0 -12" transform="rotate(90,262,250)"/><path d="M 256 292v 12h 6a 6 6, 0, 0, 0, 0 -12" transform="rotate(0,262,298)"/><rect x="256" y="316" width="12" height="12" transform="rotate(0,262,322)"/><rect x="256" y="376" width="12" height="12" transform="rotate(0,262,382)"/><rect x="256" y="388" width="12" height="12" transform="rotate(0,262,394)"/><rect x="256" y="400" width="12" height="12" transform="rotate(0,262,406)"/><rect x="256" y="412" width="12" height="12" transform="rotate(0,262,418)"/><rect x="256" y="424" width="12" height="12" transform="rotate(0,262,430)"/><path d="M 256 460v 12h 6a 6 6, 0, 0, 0, 0 -12" transform="rotate(0,262,466)"/><path d="M 268 40v 12h 12v -6a 6 6, 0, 0, 0, -6 -6" transform="rotate(-90,274,46)"/><rect x="268" y="52" width="12" height="12" transform="rotate(0,274,58)"/><path d="M 268 64v 12h 12v -6a 6 6, 0, 0, 0, -6 -6" transform="rotate(180,274,70)"/><path d="M 268 88v 12h 12v -6a 6 6, 0, 0, 0, -6 -6" transform="rotate(-90,274,94)"/><path d="M 268 100v 12h 6a 6 6, 0, 0, 0, 0 -12" transform="rotate(90,274,106)"/><rect x="268" y="136" width="12" height="12" transform="rotate(0,274,142)"/><rect x="268" y="148" width="12" height="12" transform="rotate(0,274,154)"/><path d="M 268 160v 12h 12v -6a 6 6, 0, 0, 0, -6 -6" transform="rotate(180,274,166)"/><path d="M 268 184v 12h 6a 6 6, 0, 0, 0, 0 -12" transform="rotate(0,274,190)"/><rect x="268" y="220" width="12" height="12" transform="rotate(0,274,226)"/><path d="M 268 256v 12h 12v -6a 6 6, 0, 0, 0, -6 -6" transform="rotate(-90,274,262)"/><rect x="268" y="268" width="12" height="12" transform="rotate(0,274,274)"/><path d="M 268 280v 12h 6a 6 6, 0, 0, 0, 0 -12" transform="rotate(90,274,286)"/><path d="M 268 304v 12h 12v -6a 6 6, 0, 0, 0, -6 -6" transform="rotate(-90,274,310)"/><path d="M 268 316v 12h 12v -6a 6 6, 0, 0, 0, -6 -6" transform="rotate(90,274,322)"/><path d="M 268 340v 12h 6a 6 6, 0, 0, 0, 0 -12" transform="rotate(180,274,346)"/><path d="M 268 364v 12h 6a 6 6, 0, 0, 0, 0 -12" transform="rotate(-90,274,370)"/><path d="M 268 376v 12h 12v -6a 6 6, 0, 0, 0, -6 -6" transform="rotate(90,274,382)"/><path d="M 268 412v 12h 12v -6a 6 6, 0, 0, 0, -6 -6" transform="rotate(0,274,418)"/><rect x="268" y="424" width="12" height="12" transform="rotate(0,274,430)"/><path d="M 280 40v 12h 12v -6a 6 6, 0, 0, 0, -6 -6" transform="rotate(0,286,46)"/><rect x="280" y="52" width="12" height="12" transform="rotate(0,286,58)"/><rect x="280" y="64" width="12" height="12" transform="rotate(0,286,70)"/><path d="M 280 88v 12h 6a 6 6, 0, 0, 0, 0 -12" transform="rotate(0,286,94)"/><path d="M 280 112v 12h 6a 6 6, 0, 0, 0, 0 -12" transform="rotate(180,286,118)"/><path d="M 280 136v 12h 12v -6a 6 6, 0, 0, 0, -6 -6" transform="rotate(0,286,142)"/><rect x="280" y="148" width="12" height="12" transform="rotate(0,286,154)"/><rect x="280" y="160" width="12" height="12" transform="rotate(0,286,166)"/><path d="M 280 172v 12h 6a 6 6, 0, 0, 0, 0 -12" transform="rotate(90,286,178)"/><rect x="280" y="220" width="12" height="12" transform="rotate(0,286,226)"/><rect x="280" y="256" width="12" height="12" transform="rotate(0,286,262)"/><rect x="280" y="268" width="12" height="12" transform="rotate(0,286,274)"/><rect x="280" y="304" width="12" height="12" transform="rotate(0,286,310)"/><path d="M 280 328v 12h 12v -6a 6 6, 0, 0, 0, -6 -6" transform="rotate(-90,286,334)"/><path d="M 280 340v 12h 12v -6a 6 6, 0, 0, 0, -6 -6" transform="rotate(90,286,346)"/><circle cx="286" cy="406" r="6" transform="rotate(0,286,406)"/><rect x="280" y="424" width="12" height="12" transform="rotate(0,286,430)"/><path d="M 280 436v 12h 6a 6 6, 0, 0, 0, 0 -12" transform="rotate(90,286,442)"/><rect x="292" y="64" width="12" height="12" transform="rotate(0,298,70)"/><path d="M 292 100v 12h 6a 6 6, 0, 0, 0, 0 -12" transform="rotate(-90,298,106)"/><path d="M 292 112v 12h 12v -6a 6 6, 0, 0, 0, -6 -6" transform="rotate(90,298,118)"/><path d="M 292 148v 12h 6a 6 6, 0, 0, 0, 0 -12" transform="rotate(0,298,154)"/><rect x="292" y="220" width="12" height="12" transform="rotate(0,298,226)"/><path d="M 292 232v 12h 6a 6 6, 0, 0, 0, 0 -12" transform="rotate(90,298,238)"/><rect x="292" y="256" width="12" height="12" transform="rotate(0,298,262)"/><path d="M 292 268v 12h 12v -6a 6 6, 0, 0, 0, -6 -6" transform="rotate(90,298,274)"/><rect x="292" y="304" width="12" height="12" transform="rotate(0,298,310)"/><rect x="292" y="316" width="12" height="12" transform="rotate(0,298,322)"/><path d="M 292 328v 12h 12v -6a 6 6, 0, 0, 0, -6 -6" transform="rotate(90,298,334)"/><path d="M 292 412v 12h 6a 6 6, 0, 0, 0, 0 -12" transform="rotate(-90,298,418)"/><rect x="292" y="424" width="12" height="12" transform="rotate(0,298,430)"/><path d="M 304 40v 12h 6a 6 6, 0, 0, 0, 0 -12" transform="rotate(-90,310,46)"/><rect x="304" y="52" width="12" height="12" transform="rotate(0,310,58)"/><rect x="304" y="64" width="12" height="12" transform="rotate(0,310,70)"/><path d="M 304 76v 12h 12v -6a 6 6, 0, 0, 0, -6 -6" transform="rotate(180,310,82)"/><circle cx="310" cy="142" r="6" transform="rotate(0,310,142)"/><circle cx="310" cy="166" r="6" transform="rotate(0,310,166)"/><rect x="304" y="220" width="12" height="12" transform="rotate(0,310,226)"/><path d="M 304 244v 12h 6a 6 6, 0, 0, 0, 0 -12" transform="rotate(-90,310,250)"/><rect x="304" y="256" width="12" height="12" transform="rotate(0,310,262)"/><rect x="304" y="304" width="12" height="12" transform="rotate(0,310,310)"/><rect x="304" y="316" width="12" height="12" transform="rotate(0,310,322)"/><path d="M 304 352v 12h 6a 6 6, 0, 0, 0, 0 -12" transform="rotate(-90,310,358)"/><rect x="304" y="364" width="12" height="12" transform="rotate(0,310,370)"/><path d="M 304 376v 12h 12v -6a 6 6, 0, 0, 0, -6 -6" transform="rotate(180,310,382)"/><path d="M 304 424v 12h 12v -6a 6 6, 0, 0, 0, -6 -6" transform="rotate(0,310,430)"/><rect x="304" y="436" width="12" height="12" transform="rotate(0,310,442)"/><rect x="304" y="448" width="12" height="12" transform="rotate(0,310,454)"/><path d="M 304 460v 12h 6a 6 6, 0, 0, 0, 0 -12" transform="rotate(90,310,466)"/><rect x="316" y="64" width="12" height="12" transform="rotate(0,322,70)"/><rect x="316" y="76" width="12" height="12" transform="rotate(0,322,82)"/><rect x="316" y="88" width="12" height="12" transform="rotate(0,322,94)"/><rect x="316" y="100" width="12" height="12" transform="rotate(0,322,106)"/><rect x="316" y="112" width="12" height="12" transform="rotate(0,322,118)"/><path d="M 316 124v 12h 12v -6a 6 6, 0, 0, 0, -6 -6" transform="rotate(180,322,130)"/><path d="M 316 196v 12h 12v -6a 6 6, 0, 0, 0, -6 -6" transform="rotate(-90,322,202)"/><rect x="316" y="208" width="12" height="12" transform="rotate(0,322,214)"/><rect x="316" y="220" width="12" height="12" transform="rotate(0,322,226)"/><path d="M 316 232v 12h 6a 6 6, 0, 0, 0, 0 -12" transform="rotate(90,322,238)"/><path d="M 316 256v 12h 12v -6a 6 6, 0, 0, 0, -6 -6" transform="rotate(0,322,262)"/><path d="M 316 268v 12h 12v -6a 6 6, 0, 0, 0, -6 -6" transform="rotate(180,322,274)"/><path d="M 316 292v 12h 12v -6a 6 6, 0, 0, 0, -6 -6" transform="rotate(-90,322,298)"/><rect x="316" y="304" width="12" height="12" transform="rotate(0,322,310)"/><path d="M 316 316v 12h 12v -6a 6 6, 0, 0, 0, -6 -6" transform="rotate(90,322,322)"/><path d="M 316 340v 12h 6a 6 6, 0, 0, 0, 0 -12" transform="rotate(180,322,346)"/><rect x="316" y="376" width="12" height="12" transform="rotate(0,322,382)"/><path d="M 316 388v 12h 12v -6a 6 6, 0, 0, 0, -6 -6" transform="rotate(180,322,394)"/><path d="M 316 412v 12h 6a 6 6, 0, 0, 0, 0 -12" transform="rotate(180,322,418)"/><rect x="316" y="436" width="12" height="12" transform="rotate(0,322,442)"/><path d="M 316 448v 12h 12v -6a 6 6, 0, 0, 0, -6 -6" transform="rotate(90,322,454)"/><path d="M 328 40v 12h 12v -6a 6 6, 0, 0, 0, -6 -6" transform="rotate(-90,334,46)"/><rect x="328" y="52" width="12" height="12" transform="rotate(0,334,58)"/><rect x="328" y="64" width="12" height="12" transform="rotate(0,334,70)"/><rect x="328" y="124" width="12" height="12" transform="rotate(0,334,130)"/><path d="M 328 136v 12h 6a 6 6, 0, 0, 0, 0 -12" transform="rotate(90,334,142)"/><path d="M 328 160v 12h 6a 6 6, 0, 0, 0, 0 -12" transform="rotate(-90,334,166)"/><rect x="328" y="172" width="12" height="12" transform="rotate(0,334,178)"/><rect x="328" y="184" width="12" height="12" transform="rotate(0,334,190)"/><rect x="328" y="196" width="12" height="12" transform="rotate(0,334,202)"/><rect x="328" y="208" width="12" height="12" transform="rotate(0,334,214)"/><rect x="328" y="268" width="12" height="12" transform="rotate(0,334,274)"/><rect x="328" y="292" width="12" height="12" transform="rotate(0,334,298)"/><path d="M 328 328v 12h 12v -6a 6 6, 0, 0, 0, -6 -6" transform="rotate(-90,334,334)"/><rect x="328" y="340" width="12" height="12" transform="rotate(0,334,346)"/><path d="M 328 376v 12h 12v -6a 6 6, 0, 0, 0, -6 -6" transform="rotate(0,334,382)"/><path d="M 328 388v 12h 12v -6a 6 6, 0, 0, 0, -6 -6" transform="rotate(90,334,394)"/><rect x="328" y="412" width="12" height="12" transform="rotate(0,334,418)"/><rect x="328" y="436" width="12" height="12" transform="rotate(0,334,442)"/><circle cx="334" cy="466" r="6" transform="rotate(0,334,466)"/><path d="M 340 40v 12h 6a 6 6, 0, 0, 0, 0 -12" transform="rotate(0,346,46)"/><rect x="340" y="64" width="12" height="12" transform="rotate(0,346,70)"/><path d="M 340 100v 12h 6a 6 6, 0, 0, 0, 0 -12" transform="rotate(-90,346,106)"/><rect x="340" y="112" width="12" height="12" transform="rotate(0,346,118)"/><path d="M 340 124v 12h 12v -6a 6 6, 0, 0, 0, -6 -6" transform="rotate(90,346,130)"/><rect x="340" y="184" width="12" height="12" transform="rotate(0,346,190)"/><rect x="340" y="208" width="12" height="12" transform="rotate(0,346,214)"/><path d="M 340 244v 12h 6a 6 6, 0, 0, 0, 0 -12" transform="rotate(180,346,250)"/><rect x="340" y="268" width="12" height="12" transform="rotate(0,346,274)"/><rect x="340" y="292" width="12" height="12" transform="rotate(0,346,298)"/><path d="M 340 316v 12h 6a 6 6, 0, 0, 0, 0 -12" transform="rotate(-90,346,322)"/><rect x="340" y="328" width="12" height="12" transform="rotate(0,346,334)"/><rect x="340" y="340" width="12" height="12" transform="rotate(0,346,346)"/><path d="M 340 364v 12h 6a 6 6, 0, 0, 0, 0 -12" transform="rotate(180,346,370)"/><rect x="340" y="412" width="12" height="12" transform="rotate(0,346,418)"/><rect x="340" y="424" width="12" height="12" transform="rotate(0,346,430)"/><rect x="340" y="436" width="12" height="12" transform="rotate(0,346,442)"/><path d="M 340 448v 12h 6a 6 6, 0, 0, 0, 0 -12" transform="rotate(90,346,454)"/><circle cx="358" cy="34" r="6" transform="rotate(0,358,34)"/><path d="M 352 64v 12h 6a 6 6, 0, 0, 0, 0 -12" transform="rotate(0,358,70)"/><circle cx="358" cy="94" r="6" transform="rotate(0,358,94)"/><path d="M 352 148v 12h 6a 6 6, 0, 0, 0, 0 -12" transform="rotate(180,358,154)"/><path d="M 352 184v 12h 12v -6a 6 6, 0, 0, 0, -6 -6" transform="rotate(0,358,190)"/><rect x="352" y="196" width="12" height="12" transform="rotate(0,358,202)"/><rect x="352" y="208" width="12" height="12" transform="rotate(0,358,214)"/><rect x="352" y="220" width="12" height="12" transform="rotate(0,358,226)"/><rect x="352" y="232" width="12" height="12" transform="rotate(0,358,238)"/><rect x="352" y="244" width="12" height="12" transform="rotate(0,358,250)"/><rect x="352" y="268" width="12" height="12" transform="rotate(0,358,274)"/><rect x="352" y="280" width="12" height="12" transform="rotate(0,358,286)"/><rect x="352" y="292" width="12" height="12" transform="rotate(0,358,298)"/><path d="M 352 340v 12h 6a 6 6, 0, 0, 0, 0 -12" transform="rotate(0,358,346)"/><rect x="352" y="364" width="12" height="12" transform="rotate(0,358,370)"/><path d="M 352 376v 12h 12v -6a 6 6, 0, 0, 0, -6 -6" transform="rotate(180,358,382)"/><path d="M 352 400v 12h 12v -6a 6 6, 0, 0, 0, -6 -6" transform="rotate(-90,358,406)"/><rect x="352" y="412" width="12" height="12" transform="rotate(0,358,418)"/><path d="M 352 460v 12h 6a 6 6, 0, 0, 0, 0 -12" transform="rotate(180,358,466)"/><circle cx="370" cy="82" r="6" transform="rotate(0,370,82)"/><circle cx="370" cy="106" r="6" transform="rotate(0,370,106)"/><path d="M 364 124v 12h 6a 6 6, 0, 0, 0, 0 -12" transform="rotate(180,370,130)"/><path d="M 364 148v 12h 12v -6a 6 6, 0, 0, 0, -6 -6" transform="rotate(0,370,154)"/><path d="M 364 160v 12h 12v -6a 6 6, 0, 0, 0, -6 -6" transform="rotate(180,370,166)"/><path d="M 364 196v 12h 12v -6a 6 6, 0, 0, 0, -6 -6" transform="rotate(0,370,202)"/><rect x="364" y="208" width="12" height="12" transform="rotate(0,370,214)"/><rect x="364" y="220" width="12" height="12" transform="rotate(0,370,226)"/><rect x="364" y="232" width="12" height="12" transform="rotate(0,370,238)"/><rect x="364" y="244" width="12" height="12" transform="rotate(0,370,250)"/><rect x="364" y="256" width="12" height="12" transform="rotate(0,370,262)"/><rect x="364" y="268" width="12" height="12" transform="rotate(0,370,274)"/><rect x="364" y="280" width="12" height="12" transform="rotate(0,370,286)"/><rect x="364" y="292" width="12" height="12" transform="rotate(0,370,298)"/><path d="M 364 304v 12h 12v -6a 6 6, 0, 0, 0, -6 -6" transform="rotate(180,370,310)"/><path d="M 364 328v 12h 6a 6 6, 0, 0, 0, 0 -12" transform="rotate(180,370,334)"/><path d="M 364 352v 12h 6a 6 6, 0, 0, 0, 0 -12" transform="rotate(-90,370,358)"/><rect x="364" y="364" width="12" height="12" transform="rotate(0,370,370)"/><rect x="364" y="376" width="12" height="12" transform="rotate(0,370,382)"/><rect x="364" y="388" width="12" height="12" transform="rotate(0,370,394)"/><rect x="364" y="400" width="12" height="12" transform="rotate(0,370,406)"/><rect x="364" y="412" width="12" height="12" transform="rotate(0,370,418)"/><path d="M 364 436v 12h 12v -6a 6 6, 0, 0, 0, -6 -6" transform="rotate(-90,370,442)"/><rect x="364" y="448" width="12" height="12" transform="rotate(0,370,454)"/><rect x="364" y="460" width="12" height="12" transform="rotate(0,370,466)"/><path d="M 376 124v 12h 6a 6 6, 0, 0, 0, 0 -12" transform="rotate(0,382,130)"/><rect x="376" y="160" width="12" height="12" transform="rotate(0,382,166)"/><path d="M 376 184v 12h 6a 6 6, 0, 0, 0, 0 -12" transform="rotate(180,382,190)"/><rect x="376" y="256" width="12" height="12" transform="rotate(0,382,262)"/><path d="M 376 268v 12h 12v -6a 6 6, 0, 0, 0, -6 -6" transform="rotate(90,382,274)"/><path d="M 376 292v 12h 12v -6a 6 6, 0, 0, 0, -6 -6" transform="rotate(0,382,298)"/><rect x="376" y="304" width="12" height="12" transform="rotate(0,382,310)"/><rect x="376" y="316" width="12" height="12" transform="rotate(0,382,322)"/><rect x="376" y="328" width="12" height="12" transform="rotate(0,382,334)"/><rect x="376" y="364" width="12" height="12" transform="rotate(0,382,370)"/><rect x="376" y="412" width="12" height="12" transform="rotate(0,382,418)"/><rect x="376" y="424" width="12" height="12" transform="rotate(0,382,430)"/><path d="M 376 436v 12h 12v -6a 6 6, 0, 0, 0, -6 -6" transform="rotate(90,382,442)"/><rect x="376" y="460" width="12" height="12" transform="rotate(0,382,466)"/><rect x="388" y="160" width="12" height="12" transform="rotate(0,394,166)"/><rect x="388" y="172" width="12" height="12" transform="rotate(0,394,178)"/><rect x="388" y="184" width="12" height="12" transform="rotate(0,394,190)"/><rect x="388" y="196" width="12" height="12" transform="rotate(0,394,202)"/><path d="M 388 208v 12h 6a 6 6, 0, 0, 0, 0 -12" transform="rotate(90,394,214)"/><path d="M 388 232v 12h 12v -6a 6 6, 0, 0, 0, -6 -6" transform="rotate(-90,394,238)"/><rect x="388" y="244" width="12" height="12" transform="rotate(0,394,250)"/><rect x="388" y="256" width="12" height="12" transform="rotate(0,394,262)"/><circle cx="394" cy="286" r="6" transform="rotate(0,394,286)"/><path d="M 388 328v 12h 6a 6 6, 0, 0, 0, 0 -12" transform="rotate(0,394,334)"/><rect x="388" y="364" width="12" height="12" transform="rotate(0,394,370)"/><circle cx="394" cy="394" r="6" transform="rotate(0,394,394)"/><rect x="388" y="412" width="12" height="12" transform="rotate(0,394,418)"/><rect x="388" y="424" width="12" height="12" transform="rotate(0,394,430)"/><path d="M 388 448v 12h 12v -6a 6 6, 0, 0, 0, -6 -6" transform="rotate(-90,394,454)"/><path d="M 388 460v 12h 12v -6a 6 6, 0, 0, 0, -6 -6" transform="rotate(90,394,466)"/><path d="M 400 124v 12h 6a 6 6, 0, 0, 0, 0 -12" transform="rotate(-90,406,130)"/><path d="M 400 136v 12h 12v -6a 6 6, 0, 0, 0, -6 -6" transform="rotate(180,406,142)"/><path d="M 400 160v 12h 6a 6 6, 0, 0, 0, 0 -12" transform="rotate(0,406,166)"/><rect x="400" y="196" width="12" height="12" transform="rotate(0,406,202)"/><path d="M 400 220v 12h 12v -6a 6 6, 0, 0, 0, -6 -6" transform="rotate(-90,406,226)"/><path d="M 400 232v 12h 12v -6a 6 6, 0, 0, 0, -6 -6" transform="rotate(90,406,238)"/><path d="M 400 256v 12h 6a 6 6, 0, 0, 0, 0 -12" transform="rotate(0,406,262)"/><path d="M 400 292v 12h 12v -6a 6 6, 0, 0, 0, -6 -6" transform="rotate(-90,406,298)"/><path d="M 400 304v 12h 6a 6 6, 0, 0, 0, 0 -12" transform="rotate(90,406,310)"/><path d="M 400 340v 12h 6a 6 6, 0, 0, 0, 0 -12" transform="rotate(-90,406,346)"/><rect x="400" y="352" width="12" height="12" transform="rotate(0,406,358)"/><rect x="400" y="364" width="12" height="12" transform="rotate(0,406,370)"/><rect x="400" y="412" width="12" height="12" transform="rotate(0,406,418)"/><rect x="400" y="424" width="12" height="12" transform="rotate(0,406,430)"/><rect x="400" y="448" width="12" height="12" transform="rotate(0,406,454)"/><rect x="412" y="136" width="12" height="12" transform="rotate(0,418,142)"/><rect x="412" y="196" width="12" height="12" transform="rotate(0,418,202)"/><rect x="412" y="208" width="12" height="12" transform="rotate(0,418,214)"/><rect x="412" y="220" width="12" height="12" transform="rotate(0,418,226)"/><path d="M 412 244v 12h 6a 6 6, 0, 0, 0, 0 -12" transform="rotate(180,418,250)"/><rect x="412" y="292" width="12" height="12" transform="rotate(0,418,298)"/><path d="M 412 316v 12h 6a 6 6, 0, 0, 0, 0 -12" transform="rotate(180,418,322)"/><rect x="412" y="364" width="12" height="12" transform="rotate(0,418,370)"/><rect x="412" y="376" width="12" height="12" transform="rotate(0,418,382)"/><rect x="412" y="388" width="12" height="12" transform="rotate(0,418,394)"/><rect x="412" y="400" width="12" height="12" transform="rotate(0,418,406)"/><rect x="412" y="412" width="12" height="12" transform="rotate(0,418,418)"/><path d="M 412 424v 12h 12v -6a 6 6, 0, 0, 0, -6 -6" transform="rotate(90,418,430)"/><rect x="412" y="448" width="12" height="12" transform="rotate(0,418,454)"/><path d="M 412 460v 12h 6a 6 6, 0, 0, 0, 0 -12" transform="rotate(90,418,466)"/><path d="M 424 124v 12h 12v -6a 6 6, 0, 0, 0, -6 -6" transform="rotate(-90,430,130)"/><rect x="424" y="136" width="12" height="12" transform="rotate(0,430,142)"/><path d="M 424 148v 12h 12v -6a 6 6, 0, 0, 0, -6 -6" transform="rotate(180,430,154)"/><path d="M 424 172v 12h 6a 6 6, 0, 0, 0, 0 -12" transform="rotate(-90,430,178)"/><rect x="424" y="184" width="12" height="12" transform="rotate(0,430,190)"/><rect x="424" y="196" width="12" height="12" transform="rotate(0,430,202)"/><rect x="424" y="208" width="12" height="12" transform="rotate(0,430,214)"/><rect x="424" y="220" width="12" height="12" transform="rotate(0,430,226)"/><path d="M 424 244v 12h 6a 6 6, 0, 0, 0, 0 -12" transform="rotate(0,430,250)"/><path d="M 424 268v 12h 12v -6a 6 6, 0, 0, 0, -6 -6" transform="rotate(-90,430,274)"/><rect x="424" y="280" width="12" height="12" transform="rotate(0,430,286)"/><rect x="424" y="292" width="12" height="12" transform="rotate(0,430,298)"/><rect x="424" y="316" width="12" height="12" transform="rotate(0,430,322)"/><path d="M 424 340v 12h 6a 6 6, 0, 0, 0, 0 -12" transform="rotate(180,430,346)"/><path d="M 424 364v 12h 6a 6 6, 0, 0, 0, 0 -12" transform="rotate(0,430,370)"/><rect x="424" y="388" width="12" height="12" transform="rotate(0,430,394)"/><rect x="424" y="412" width="12" height="12" transform="rotate(0,430,418)"/><rect x="424" y="448" width="12" height="12" transform="rotate(0,430,454)"/><rect x="436" y="124" width="12" height="12" transform="rotate(0,442,130)"/><rect x="436" y="136" width="12" height="12" transform="rotate(0,442,142)"/><path d="M 436 148v 12h 12v -6a 6 6, 0, 0, 0, -6 -6" transform="rotate(90,442,154)"/><path d="M 436 220v 12h 12v -6a 6 6, 0, 0, 0, -6 -6" transform="rotate(0,442,226)"/><path d="M 436 232v 12h 6a 6 6, 0, 0, 0, 0 -12" transform="rotate(90,442,238)"/><path d="M 436 256v 12h 6a 6 6, 0, 0, 0, 0 -12" transform="rotate(-90,442,262)"/><rect x="436" y="268" width="12" height="12" transform="rotate(0,442,274)"/><rect x="436" y="280" width="12" height="12" transform="rotate(0,442,286)"/><rect x="436" y="292" width="12" height="12" transform="rotate(0,442,298)"/><rect x="436" y="304" width="12" height="12" transform="rotate(0,442,310)"/><path d="M 436 316v 12h 12v -6a 6 6, 0, 0, 0, -6 -6" transform="rotate(90,442,322)"/><path d="M 436 340v 12h 6a 6 6, 0, 0, 0, 0 -12" transform="rotate(0,442,346)"/><rect x="436" y="388" width="12" height="12" transform="rotate(0,442,394)"/><rect x="436" y="400" width="12" height="12" transform="rotate(0,442,406)"/><rect x="436" y="412" width="12" height="12" transform="rotate(0,442,418)"/><path d="M 436 424v 12h 12v -6a 6 6, 0, 0, 0, -6 -6" transform="rotate(180,442,430)"/><path d="M 436 448v 12h 6a 6 6, 0, 0, 0, 0 -12" transform="rotate(0,442,454)"/><path d="M 448 124v 12h 6a 6 6, 0, 0, 0, 0 -12" transform="rotate(0,454,130)"/><path d="M 448 172v 12h 6a 6 6, 0, 0, 0, 0 -12" transform="rotate(180,454,178)"/><path d="M 448 196v 12h 6a 6 6, 0, 0, 0, 0 -12" transform="rotate(180,454,202)"/><circle cx="454" cy="250" r="6" transform="rotate(0,454,250)"/><path d="M 448 268v 12h 6a 6 6, 0, 0, 0, 0 -12" transform="rotate(0,454,274)"/><rect x="448" y="292" width="12" height="12" transform="rotate(0,454,298)"/><path d="M 448 328v 12h 6a 6 6, 0, 0, 0, 0 -12" transform="rotate(180,454,334)"/><path d="M 448 376v 12h 12v -6a 6 6, 0, 0, 0, -6 -6" transform="rotate(-90,454,382)"/><rect x="448" y="388" width="12" height="12" transform="rotate(0,454,394)"/><rect x="448" y="400" width="12" height="12" transform="rotate(0,454,406)"/><rect x="448" y="424" width="12" height="12" transform="rotate(0,454,430)"/><path d="M 448 436v 12h 12v -6a 6 6, 0, 0, 0, -6 -6" transform="rotate(180,454,442)"/><path d="M 460 136v 12h 6a 6 6, 0, 0, 0, 0 -12" transform="rotate(-90,466,142)"/><rect x="460" y="148" width="12" height="12" transform="rotate(0,466,154)"/><rect x="460" y="160" width="12" height="12" transform="rotate(0,466,166)"/><rect x="460" y="172" width="12" height="12" transform="rotate(0,466,178)"/><rect x="460" y="184" width="12" height="12" transform="rotate(0,466,190)"/><rect x="460" y="196" width="12" height="12" transform="rotate(0,466,202)"/><rect x="460" y="208" width="12" height="12" transform="rotate(0,466,214)"/><rect x="460" y="220" width="12" height="12" transform="rotate(0,466,226)"/><path d="M 460 232v 12h 6a 6 6, 0, 0, 0, 0 -12" transform="rotate(90,466,238)"/><circle cx="466" cy="262" r="6" transform="rotate(0,466,262)"/><path d="M 460 292v 12h 6a 6 6, 0, 0, 0, 0 -12" transform="rotate(0,466,298)"/><path d="M 460 316v 12h 6a 6 6, 0, 0, 0, 0 -12" transform="rotate(-90,466,322)"/><rect x="460" y="328" width="12" height="12" transform="rotate(0,466,334)"/><path d="M 460 340v 12h 6a 6 6, 0, 0, 0, 0 -12" transform="rotate(90,466,346)"/><path d="M 460 376v 12h 12v -6a 6 6, 0, 0, 0, -6 -6" transform="rotate(0,466,382)"/><rect x="460" y="388" width="12" height="12" transform="rotate(0,466,394)"/><path d="M 460 400v 12h 12v -6a 6 6, 0, 0, 0, -6 -6" transform="rotate(90,466,406)"/><path d="M 460 424v 12h 12v -6a 6 6, 0, 0, 0, -6 -6" transform="rotate(0,466,430)"/><rect x="460" y="436" width="12" height="12" transform="rotate(0,466,442)"/><rect x="460" y="448" width="12" height="12" transform="rotate(0,466,454)"/><path d="M 460 460v 12h 6a 6 6, 0, 0, 0, 0 -12" transform="rotate(90,466,466)"/></clipPath><clipPath id="clip-path-corners-square-color-0-0"><path clip-rule="evenodd" d="M 70 28a 42 42 0 1 0 0.1 0zm 0 12a 30 30 0 1 1 -0.1 0Z" transform="rotate(0,70,70)"/></clipPath><clipPath id="clip-path-corners-dot-color-0-0"><circle cx="70" cy="70" r="18" transform="rotate(0,70,70)"/></clipPath><clipPath id="clip-path-corners-square-color-1-0"><path clip-rule="evenodd" d="M 430 28a 42 42 0 1 0 0.1 0zm 0 12a 30 30 0 1 1 -0.1 0Z" transform="rotate(90,430,70)"/></clipPath><clipPath id="clip-path-corners-dot-color-1-0"><circle cx="430" cy="70" r="18" transform="rotate(90,430,70)"/></clipPath><clipPath id="clip-path-corners-square-color-0-1"><path clip-rule="evenodd" d="M 70 388a 42 42 0 1 0 0.1 0zm 0 12a 30 30 0 1 1 -0.1 0Z" transform="rotate(-90,70,430)"/></clipPath><clipPath id="clip-path-corners-dot-color-0-1"><circle cx="70" cy="430" r="18" transform="rotate(-90,70,430)"/></clipPath></defs><rect x="0" y="0" height="500" width="500" clip-path="url('#clip-path-background-color')" fill="#fff"/><rect x="0" y="0" height="500" width="500" clip-path="url('#clip-path-dot-color')" fill="#285F2F"/><rect x="28" y="28" height="84" width="84" clip-path="url('#clip-path-corners-square-color-0-0')" fill="#285F2F"/><rect x="52" y="52" height="36" width="36" clip-path="url('#clip-path-corners-dot-color-0-0')" fill="#285F2F"/><rect x="388" y="28" height="84" width="84" clip-path="url('#clip-path-corners-square-color-1-0')" fill="#285F2F"/><rect x="412" y="52" height="36" width="36" clip-path="url('#clip-path-corners-dot-color-1-0')" fill="#285F2F"/><rect x="28" y="388" height="84" width="84" clip-path="url('#clip-path-corners-square-color-0-1')" fill="#285F2F"/><rect x="52" y="412" height="36" width="36" clip-path="url('#clip-path-corners-dot-color-0-1')" fill="#285F2F"/></svg>